<mxfile host="65bd71144e">
    <diagram id="C5RBs43oDa-KdzZeNtuy" name="Page-1">
        <mxGraphModel dx="543" dy="2748" grid="1" gridSize="10" guides="1" tooltips="1" connect="1" arrows="1" fold="1" page="1" pageScale="1" pageWidth="827" pageHeight="1169" math="0" shadow="0">
            <root>
                <mxCell id="WIyWlLk6GJQsqaUBKTNV-0"/>
                <mxCell id="WIyWlLk6GJQsqaUBKTNV-1" parent="WIyWlLk6GJQsqaUBKTNV-0"/>
                <mxCell id="MVznO9gAsRZyriu-F6Vp-0" value="Aeroporto" style="swimlane;fontStyle=2;align=center;verticalAlign=top;childLayout=stackLayout;horizontal=1;startSize=26;horizontalStack=0;resizeParent=1;resizeLast=0;collapsible=1;marginBottom=0;rounded=0;shadow=0;strokeWidth=1;" parent="WIyWlLk6GJQsqaUBKTNV-1" vertex="1">
                    <mxGeometry x="455" y="-640" width="310" height="70" as="geometry">
                        <mxRectangle x="230" y="140" width="160" height="26" as="alternateBounds"/>
                    </mxGeometry>
                </mxCell>
                <mxCell id="MVznO9gAsRZyriu-F6Vp-1" value="+gerenciadorDePista: GerenciadorDePista" style="text;align=left;verticalAlign=top;spacingLeft=4;spacingRight=4;overflow=hidden;rotatable=0;points=[[0,0.5],[1,0.5]];portConstraint=eastwest;" parent="MVznO9gAsRZyriu-F6Vp-0" vertex="1">
                    <mxGeometry y="26" width="310" height="26" as="geometry"/>
                </mxCell>
                <mxCell id="MVznO9gAsRZyriu-F6Vp-4" value="" style="line;html=1;strokeWidth=1;align=left;verticalAlign=middle;spacingTop=-1;spacingLeft=3;spacingRight=3;rotatable=0;labelPosition=right;points=[];portConstraint=eastwest;" parent="MVznO9gAsRZyriu-F6Vp-0" vertex="1">
                    <mxGeometry y="52" width="310" height="8" as="geometry"/>
                </mxCell>
                <mxCell id="MVznO9gAsRZyriu-F6Vp-6" value="Gerenciador de Pista" style="swimlane;fontStyle=2;align=center;verticalAlign=top;childLayout=stackLayout;horizontal=1;startSize=26;horizontalStack=0;resizeParent=1;resizeLast=0;collapsible=1;marginBottom=0;rounded=0;shadow=0;strokeWidth=1;" parent="WIyWlLk6GJQsqaUBKTNV-1" vertex="1">
                    <mxGeometry x="415" y="-440" width="390" height="336" as="geometry">
                        <mxRectangle x="230" y="140" width="160" height="26" as="alternateBounds"/>
                    </mxGeometry>
                </mxCell>
                <mxCell id="MVznO9gAsRZyriu-F6Vp-9" value="-Pistas: ArrayList&#10;-Clima: boolean" style="text;align=left;verticalAlign=top;spacingLeft=4;spacingRight=4;overflow=hidden;rotatable=0;points=[[0,0.5],[1,0.5]];portConstraint=eastwest;rounded=0;shadow=0;html=0;" parent="MVznO9gAsRZyriu-F6Vp-6" vertex="1">
                    <mxGeometry y="26" width="390" height="42" as="geometry"/>
                </mxCell>
                <mxCell id="MVznO9gAsRZyriu-F6Vp-10" value="" style="line;html=1;strokeWidth=1;align=left;verticalAlign=middle;spacingTop=-1;spacingLeft=3;spacingRight=3;rotatable=0;labelPosition=right;points=[];portConstraint=eastwest;" parent="MVznO9gAsRZyriu-F6Vp-6" vertex="1">
                    <mxGeometry y="68" width="390" height="40" as="geometry"/>
                </mxCell>
                <mxCell id="MVznO9gAsRZyriu-F6Vp-12" value="+MenorFilaDeAterrissagem(): int&#10;+MenorFilaDeDecolagem():int &#10;+QuantidadeDeAviao(Pista p): int&#10;+AdicionarAviaoAterrissagem(): void&#10;+AdicionarAviaoPouso():void&#10;+AdicionarAviaoEmergencial():void&#10;+ConferirAviaoEmergencial():Aviao&#10;+ConferirCondiÃ§oesClimaticas():boolean&#10;" style="text;align=left;verticalAlign=top;spacingLeft=4;spacingRight=4;overflow=hidden;rotatable=0;points=[[0,0.5],[1,0.5]];portConstraint=eastwest;rounded=0;shadow=0;html=0;" parent="MVznO9gAsRZyriu-F6Vp-6" vertex="1">
                    <mxGeometry y="108" width="390" height="176" as="geometry"/>
                </mxCell>
                <mxCell id="MVznO9gAsRZyriu-F6Vp-14" value="Pista" style="swimlane;fontStyle=2;align=center;verticalAlign=top;childLayout=stackLayout;horizontal=1;startSize=26;horizontalStack=0;resizeParent=1;resizeLast=0;collapsible=1;marginBottom=0;rounded=0;shadow=0;strokeWidth=1;" parent="WIyWlLk6GJQsqaUBKTNV-1" vertex="1">
                    <mxGeometry x="405" y="10" width="410" height="420" as="geometry">
                        <mxRectangle x="230" y="140" width="160" height="26" as="alternateBounds"/>
                    </mxGeometry>
                </mxCell>
                <mxCell id="MVznO9gAsRZyriu-F6Vp-15" value="-FilaAterrissagem:ArrayList&lt;Aviao&gt;" style="text;align=left;verticalAlign=top;spacingLeft=4;spacingRight=4;overflow=hidden;rotatable=0;points=[[0,0.5],[1,0.5]];portConstraint=eastwest;" parent="MVznO9gAsRZyriu-F6Vp-14" vertex="1">
                    <mxGeometry y="26" width="410" height="26" as="geometry"/>
                </mxCell>
                <mxCell id="MVznO9gAsRZyriu-F6Vp-16" value="-FilaDeDecolagem:ArrayList&lt;Aviao&gt;" style="text;align=left;verticalAlign=top;spacingLeft=4;spacingRight=4;overflow=hidden;rotatable=0;points=[[0,0.5],[1,0.5]];portConstraint=eastwest;rounded=0;shadow=0;html=0;" parent="MVznO9gAsRZyriu-F6Vp-14" vertex="1">
                    <mxGeometry y="52" width="410" height="26" as="geometry"/>
                </mxCell>
                <mxCell id="MVznO9gAsRZyriu-F6Vp-17" value="-Nome: string" style="text;align=left;verticalAlign=top;spacingLeft=4;spacingRight=4;overflow=hidden;rotatable=0;points=[[0,0.5],[1,0.5]];portConstraint=eastwest;rounded=0;shadow=0;html=0;" parent="MVznO9gAsRZyriu-F6Vp-14" vertex="1">
                    <mxGeometry y="78" width="410" height="26" as="geometry"/>
                </mxCell>
                <mxCell id="MVznO9gAsRZyriu-F6Vp-18" value="" style="line;html=1;strokeWidth=1;align=left;verticalAlign=middle;spacingTop=-1;spacingLeft=3;spacingRight=3;rotatable=0;labelPosition=right;points=[];portConstraint=eastwest;" parent="MVznO9gAsRZyriu-F6Vp-14" vertex="1">
                    <mxGeometry y="104" width="410" height="8" as="geometry"/>
                </mxCell>
                <mxCell id="MVznO9gAsRZyriu-F6Vp-19" value="+AdicionarAviaoDecolagem():void&#10;+AdicionarAviaoAterrissagem():void&#10;+AdicionarAviaoAterrissagemEmergencial():void+RearanjarFila():void&#10;+Decolar():void&#10;+Aterrisar():void&#10;&#10;&#10;" style="text;align=left;verticalAlign=top;spacingLeft=4;spacingRight=4;overflow=hidden;rotatable=0;points=[[0,0.5],[1,0.5]];portConstraint=eastwest;" parent="MVznO9gAsRZyriu-F6Vp-14" vertex="1">
                    <mxGeometry y="112" width="410" height="108" as="geometry"/>
                </mxCell>
                <mxCell id="MVznO9gAsRZyriu-F6Vp-21" value="Aviao" style="swimlane;fontStyle=0;align=center;verticalAlign=top;childLayout=stackLayout;horizontal=1;startSize=26;horizontalStack=0;resizeParent=1;resizeLast=0;collapsible=1;marginBottom=0;rounded=0;shadow=0;strokeWidth=1;" parent="WIyWlLk6GJQsqaUBKTNV-1" vertex="1">
                    <mxGeometry x="500" y="600" width="180" height="100" as="geometry">
                        <mxRectangle x="550" y="140" width="160" height="26" as="alternateBounds"/>
                    </mxGeometry>
                </mxCell>
                <mxCell id="MVznO9gAsRZyriu-F6Vp-22" value="-numeroAviao: int&#10;-tempoDeEspera: int&#10;" style="text;align=left;verticalAlign=top;spacingLeft=4;spacingRight=4;overflow=hidden;rotatable=0;points=[[0,0.5],[1,0.5]];portConstraint=eastwest;" parent="MVznO9gAsRZyriu-F6Vp-21" vertex="1">
                    <mxGeometry y="26" width="180" height="44" as="geometry"/>
                </mxCell>
                <mxCell id="MVznO9gAsRZyriu-F6Vp-27" value="" style="line;html=1;strokeWidth=1;align=left;verticalAlign=middle;spacingTop=-1;spacingLeft=3;spacingRight=3;rotatable=0;labelPosition=right;points=[];portConstraint=eastwest;" parent="MVznO9gAsRZyriu-F6Vp-21" vertex="1">
                    <mxGeometry y="70" width="180" height="30" as="geometry"/>
                </mxCell>
                <mxCell id="MVznO9gAsRZyriu-F6Vp-30" value="Aviao Decolagem" style="swimlane;fontStyle=0;align=center;verticalAlign=top;childLayout=stackLayout;horizontal=1;startSize=26;horizontalStack=0;resizeParent=1;resizeLast=0;collapsible=1;marginBottom=0;rounded=0;shadow=0;strokeWidth=1;" parent="WIyWlLk6GJQsqaUBKTNV-1" vertex="1">
                    <mxGeometry x="405" y="800" width="160" height="90" as="geometry">
                        <mxRectangle x="550" y="140" width="160" height="26" as="alternateBounds"/>
                    </mxGeometry>
                </mxCell>
                <mxCell id="MVznO9gAsRZyriu-F6Vp-31" value="-decolar: boolean " style="text;align=left;verticalAlign=top;spacingLeft=4;spacingRight=4;overflow=hidden;rotatable=0;points=[[0,0.5],[1,0.5]];portConstraint=eastwest;" parent="MVznO9gAsRZyriu-F6Vp-30" vertex="1">
                    <mxGeometry y="26" width="160" height="26" as="geometry"/>
                </mxCell>
                <mxCell id="MVznO9gAsRZyriu-F6Vp-36" value="" style="line;html=1;strokeWidth=1;align=left;verticalAlign=middle;spacingTop=-1;spacingLeft=3;spacingRight=3;rotatable=0;labelPosition=right;points=[];portConstraint=eastwest;" parent="MVznO9gAsRZyriu-F6Vp-30" vertex="1">
                    <mxGeometry y="52" width="160" height="8" as="geometry"/>
                </mxCell>
                <mxCell id="MVznO9gAsRZyriu-F6Vp-39" value="Aviao Aterrissagem" style="swimlane;fontStyle=0;align=center;verticalAlign=top;childLayout=stackLayout;horizontal=1;startSize=26;horizontalStack=0;resizeParent=1;resizeLast=0;collapsible=1;marginBottom=0;rounded=0;shadow=0;strokeWidth=1;" parent="WIyWlLk6GJQsqaUBKTNV-1" vertex="1">
                    <mxGeometry x="620" y="800" width="160" height="118" as="geometry">
                        <mxRectangle x="550" y="140" width="160" height="26" as="alternateBounds"/>
                    </mxGeometry>
                </mxCell>
                <mxCell id="MVznO9gAsRZyriu-F6Vp-40" value="-aterrissar: boolean " style="text;align=left;verticalAlign=top;spacingLeft=4;spacingRight=4;overflow=hidden;rotatable=0;points=[[0,0.5],[1,0.5]];portConstraint=eastwest;" parent="MVznO9gAsRZyriu-F6Vp-39" vertex="1">
                    <mxGeometry y="26" width="160" height="26" as="geometry"/>
                </mxCell>
                <mxCell id="MVznO9gAsRZyriu-F6Vp-41" value="-emergencial: boolean&#10;-passageiroEmergencial:bool&#10;" style="text;align=left;verticalAlign=top;spacingLeft=4;spacingRight=4;overflow=hidden;rotatable=0;points=[[0,0.5],[1,0.5]];portConstraint=eastwest;rounded=0;shadow=0;html=0;" parent="MVznO9gAsRZyriu-F6Vp-39" vertex="1">
                    <mxGeometry y="52" width="160" height="58" as="geometry"/>
                </mxCell>
                <mxCell id="MVznO9gAsRZyriu-F6Vp-42" value="" style="line;html=1;strokeWidth=1;align=left;verticalAlign=middle;spacingTop=-1;spacingLeft=3;spacingRight=3;rotatable=0;labelPosition=right;points=[];portConstraint=eastwest;" parent="MVznO9gAsRZyriu-F6Vp-39" vertex="1">
                    <mxGeometry y="110" width="160" height="8" as="geometry"/>
                </mxCell>
                <mxCell id="MVznO9gAsRZyriu-F6Vp-43" value="" style="endArrow=block;endSize=10;endFill=0;shadow=0;strokeWidth=1;rounded=0;edgeStyle=elbowEdgeStyle;elbow=vertical;" parent="WIyWlLk6GJQsqaUBKTNV-1" edge="1">
                    <mxGeometry width="160" relative="1" as="geometry">
                        <mxPoint x="700" y="800" as="sourcePoint"/>
                        <mxPoint x="590" y="698" as="targetPoint"/>
                    </mxGeometry>
                </mxCell>
                <mxCell id="MVznO9gAsRZyriu-F6Vp-44" value="" style="endArrow=block;endSize=10;endFill=0;shadow=0;strokeWidth=1;rounded=0;edgeStyle=elbowEdgeStyle;elbow=vertical;" parent="WIyWlLk6GJQsqaUBKTNV-1" edge="1">
                    <mxGeometry width="160" relative="1" as="geometry">
                        <mxPoint x="490" y="800" as="sourcePoint"/>
                        <mxPoint x="590" y="698" as="targetPoint"/>
                    </mxGeometry>
                </mxCell>
                <mxCell id="MVznO9gAsRZyriu-F6Vp-46" value="1*" style="text;html=1;align=center;verticalAlign=middle;resizable=0;points=[];autosize=1;strokeColor=none;fillColor=none;" parent="WIyWlLk6GJQsqaUBKTNV-1" vertex="1">
                    <mxGeometry x="595" y="570" width="30" height="30" as="geometry"/>
                </mxCell>
                <mxCell id="MVznO9gAsRZyriu-F6Vp-49" value="" style="endArrow=none;html=1;rounded=0;exitX=0.508;exitY=0.001;exitDx=0;exitDy=0;exitPerimeter=0;entryX=0.507;entryY=1.02;entryDx=0;entryDy=0;entryPerimeter=0;" parent="WIyWlLk6GJQsqaUBKTNV-1" source="MVznO9gAsRZyriu-F6Vp-14" target="MVznO9gAsRZyriu-F6Vp-12" edge="1">
                    <mxGeometry width="50" height="50" relative="1" as="geometry">
                        <mxPoint x="580" y="-60" as="sourcePoint"/>
                        <mxPoint x="630" y="-110" as="targetPoint"/>
                    </mxGeometry>
                </mxCell>
                <mxCell id="MVznO9gAsRZyriu-F6Vp-50" value="3" style="text;html=1;align=center;verticalAlign=middle;resizable=0;points=[];autosize=1;strokeColor=none;fillColor=none;" parent="WIyWlLk6GJQsqaUBKTNV-1" vertex="1">
                    <mxGeometry x="615" y="-22" width="30" height="30" as="geometry"/>
                </mxCell>
                <mxCell id="MVznO9gAsRZyriu-F6Vp-51" value="1" style="text;html=1;align=center;verticalAlign=middle;resizable=0;points=[];autosize=1;strokeColor=none;fillColor=none;" parent="WIyWlLk6GJQsqaUBKTNV-1" vertex="1">
                    <mxGeometry x="615" y="-112" width="30" height="30" as="geometry"/>
                </mxCell>
                <mxCell id="MVznO9gAsRZyriu-F6Vp-52" value="" style="endArrow=none;html=1;rounded=0;exitX=0.5;exitY=0;exitDx=0;exitDy=0;entryX=0.5;entryY=1;entryDx=0;entryDy=0;" parent="WIyWlLk6GJQsqaUBKTNV-1" source="MVznO9gAsRZyriu-F6Vp-6" target="MVznO9gAsRZyriu-F6Vp-0" edge="1">
                    <mxGeometry width="50" height="50" relative="1" as="geometry">
                        <mxPoint x="580" y="-520" as="sourcePoint"/>
                        <mxPoint x="630" y="-570" as="targetPoint"/>
                    </mxGeometry>
                </mxCell>
                <mxCell id="MVznO9gAsRZyriu-F6Vp-53" value="1" style="text;html=1;align=center;verticalAlign=middle;resizable=0;points=[];autosize=1;strokeColor=none;fillColor=none;" parent="WIyWlLk6GJQsqaUBKTNV-1" vertex="1">
                    <mxGeometry x="620" y="-470" width="30" height="30" as="geometry"/>
                </mxCell>
                <mxCell id="MVznO9gAsRZyriu-F6Vp-54" value="1" style="text;html=1;align=center;verticalAlign=middle;resizable=0;points=[];autosize=1;strokeColor=none;fillColor=none;" parent="WIyWlLk6GJQsqaUBKTNV-1" vertex="1">
                    <mxGeometry x="620" y="-560" width="30" height="30" as="geometry"/>
                </mxCell>
                <mxCell id="MVznO9gAsRZyriu-F6Vp-55" value="Aeroporto" style="swimlane;fontStyle=2;align=center;verticalAlign=top;childLayout=stackLayout;horizontal=1;startSize=26;horizontalStack=0;resizeParent=1;resizeLast=0;collapsible=1;marginBottom=0;rounded=0;shadow=0;strokeWidth=1;" parent="WIyWlLk6GJQsqaUBKTNV-1" vertex="1">
                    <mxGeometry x="1200" y="-630" width="310" height="70" as="geometry">
                        <mxRectangle x="230" y="140" width="160" height="26" as="alternateBounds"/>
                    </mxGeometry>
                </mxCell>
                <mxCell id="MVznO9gAsRZyriu-F6Vp-56" value="+gerenciadorDePista: GerenciadorDePista" style="text;align=left;verticalAlign=top;spacingLeft=4;spacingRight=4;overflow=hidden;rotatable=0;points=[[0,0.5],[1,0.5]];portConstraint=eastwest;" parent="MVznO9gAsRZyriu-F6Vp-55" vertex="1">
                    <mxGeometry y="26" width="310" height="26" as="geometry"/>
                </mxCell>
                <mxCell id="MVznO9gAsRZyriu-F6Vp-57" value="" style="line;html=1;strokeWidth=1;align=left;verticalAlign=middle;spacingTop=-1;spacingLeft=3;spacingRight=3;rotatable=0;labelPosition=right;points=[];portConstraint=eastwest;" parent="MVznO9gAsRZyriu-F6Vp-55" vertex="1">
                    <mxGeometry y="52" width="310" height="8" as="geometry"/>
                </mxCell>
                <mxCell id="MVznO9gAsRZyriu-F6Vp-64" value="Pista" style="swimlane;fontStyle=2;align=center;verticalAlign=top;childLayout=stackLayout;horizontal=1;startSize=26;horizontalStack=0;resizeParent=1;resizeLast=0;collapsible=1;marginBottom=0;rounded=0;shadow=0;strokeWidth=1;" parent="WIyWlLk6GJQsqaUBKTNV-1" vertex="1">
                    <mxGeometry x="1150" y="20" width="410" height="200" as="geometry">
                        <mxRectangle x="230" y="140" width="160" height="26" as="alternateBounds"/>
                    </mxGeometry>
                </mxCell>
                <mxCell id="MVznO9gAsRZyriu-F6Vp-65" value="-FilaAterrissagem:ArrayList&lt;Aviao&gt;" style="text;align=left;verticalAlign=top;spacingLeft=4;spacingRight=4;overflow=hidden;rotatable=0;points=[[0,0.5],[1,0.5]];portConstraint=eastwest;" parent="MVznO9gAsRZyriu-F6Vp-64" vertex="1">
                    <mxGeometry y="26" width="410" height="26" as="geometry"/>
                </mxCell>
                <mxCell id="MVznO9gAsRZyriu-F6Vp-66" value="-FilaDeDecolagem:ArrayList&lt;Aviao&gt;" style="text;align=left;verticalAlign=top;spacingLeft=4;spacingRight=4;overflow=hidden;rotatable=0;points=[[0,0.5],[1,0.5]];portConstraint=eastwest;rounded=0;shadow=0;html=0;" parent="MVznO9gAsRZyriu-F6Vp-64" vertex="1">
                    <mxGeometry y="52" width="410" height="26" as="geometry"/>
                </mxCell>
                <mxCell id="MVznO9gAsRZyriu-F6Vp-67" value="-Nome: string" style="text;align=left;verticalAlign=top;spacingLeft=4;spacingRight=4;overflow=hidden;rotatable=0;points=[[0,0.5],[1,0.5]];portConstraint=eastwest;rounded=0;shadow=0;html=0;" parent="MVznO9gAsRZyriu-F6Vp-64" vertex="1">
                    <mxGeometry y="78" width="410" height="26" as="geometry"/>
                </mxCell>
                <mxCell id="MVznO9gAsRZyriu-F6Vp-68" value="" style="line;html=1;strokeWidth=1;align=left;verticalAlign=middle;spacingTop=-1;spacingLeft=3;spacingRight=3;rotatable=0;labelPosition=right;points=[];portConstraint=eastwest;" parent="MVznO9gAsRZyriu-F6Vp-64" vertex="1">
                    <mxGeometry y="104" width="410" height="8" as="geometry"/>
                </mxCell>
                <mxCell id="MVznO9gAsRZyriu-F6Vp-69" value="+AdicionarAviaoDecolagem():void&#10;+AdicionarAviaoAterrissagem():void&#10;+AdicionarAviaoAterrissagemEmergencial():void+RearanjarFila():void&#10;+Decolar():void&#10;+Aterrisar():void&#10;&#10;&#10;" style="text;align=left;verticalAlign=top;spacingLeft=4;spacingRight=4;overflow=hidden;rotatable=0;points=[[0,0.5],[1,0.5]];portConstraint=eastwest;" parent="MVznO9gAsRZyriu-F6Vp-64" vertex="1">
                    <mxGeometry y="112" width="410" height="88" as="geometry"/>
                </mxCell>
                <mxCell id="MVznO9gAsRZyriu-F6Vp-70" value="Aviao" style="swimlane;fontStyle=0;align=center;verticalAlign=top;childLayout=stackLayout;horizontal=1;startSize=26;horizontalStack=0;resizeParent=1;resizeLast=0;collapsible=1;marginBottom=0;rounded=0;shadow=0;strokeWidth=1;" parent="WIyWlLk6GJQsqaUBKTNV-1" vertex="1">
                    <mxGeometry x="1240" y="300" width="195" height="100" as="geometry">
                        <mxRectangle x="550" y="140" width="160" height="26" as="alternateBounds"/>
                    </mxGeometry>
                </mxCell>
                <mxCell id="MVznO9gAsRZyriu-F6Vp-71" value="-numeroAviao: int&#10;-tempoDeEspera: int&#10;" style="text;align=left;verticalAlign=top;spacingLeft=4;spacingRight=4;overflow=hidden;rotatable=0;points=[[0,0.5],[1,0.5]];portConstraint=eastwest;" parent="MVznO9gAsRZyriu-F6Vp-70" vertex="1">
                    <mxGeometry y="26" width="195" height="44" as="geometry"/>
                </mxCell>
                <mxCell id="MVznO9gAsRZyriu-F6Vp-72" value="" style="line;html=1;strokeWidth=1;align=left;verticalAlign=middle;spacingTop=-1;spacingLeft=3;spacingRight=3;rotatable=0;labelPosition=right;points=[];portConstraint=eastwest;" parent="MVznO9gAsRZyriu-F6Vp-70" vertex="1">
                    <mxGeometry y="70" width="195" height="30" as="geometry"/>
                </mxCell>
                <mxCell id="MVznO9gAsRZyriu-F6Vp-73" value="Aviao Decolagem" style="swimlane;fontStyle=0;align=center;verticalAlign=top;childLayout=stackLayout;horizontal=1;startSize=26;horizontalStack=0;resizeParent=1;resizeLast=0;collapsible=1;marginBottom=0;rounded=0;shadow=0;strokeWidth=1;" parent="WIyWlLk6GJQsqaUBKTNV-1" vertex="1">
                    <mxGeometry x="1150" y="500" width="160" height="90" as="geometry">
                        <mxRectangle x="550" y="140" width="160" height="26" as="alternateBounds"/>
                    </mxGeometry>
                </mxCell>
                <mxCell id="MVznO9gAsRZyriu-F6Vp-74" value="-decolar: boolean " style="text;align=left;verticalAlign=top;spacingLeft=4;spacingRight=4;overflow=hidden;rotatable=0;points=[[0,0.5],[1,0.5]];portConstraint=eastwest;" parent="MVznO9gAsRZyriu-F6Vp-73" vertex="1">
                    <mxGeometry y="26" width="160" height="26" as="geometry"/>
                </mxCell>
                <mxCell id="MVznO9gAsRZyriu-F6Vp-76" value="" style="line;html=1;strokeWidth=1;align=left;verticalAlign=middle;spacingTop=-1;spacingLeft=3;spacingRight=3;rotatable=0;labelPosition=right;points=[];portConstraint=eastwest;" parent="MVznO9gAsRZyriu-F6Vp-73" vertex="1">
                    <mxGeometry y="52" width="160" height="8" as="geometry"/>
                </mxCell>
                <mxCell id="MVznO9gAsRZyriu-F6Vp-77" value="Aviao Aterrissagem" style="swimlane;fontStyle=0;align=center;verticalAlign=top;childLayout=stackLayout;horizontal=1;startSize=26;horizontalStack=0;resizeParent=1;resizeLast=0;collapsible=1;marginBottom=0;rounded=0;shadow=0;strokeWidth=1;" parent="WIyWlLk6GJQsqaUBKTNV-1" vertex="1">
                    <mxGeometry x="1365" y="500" width="160" height="104" as="geometry">
                        <mxRectangle x="550" y="140" width="160" height="26" as="alternateBounds"/>
                    </mxGeometry>
                </mxCell>
                <mxCell id="MVznO9gAsRZyriu-F6Vp-78" value="-aterrissar: boolean &#10;-passageiroemergencial:bool" style="text;align=left;verticalAlign=top;spacingLeft=4;spacingRight=4;overflow=hidden;rotatable=0;points=[[0,0.5],[1,0.5]];portConstraint=eastwest;" parent="MVznO9gAsRZyriu-F6Vp-77" vertex="1">
                    <mxGeometry y="26" width="160" height="44" as="geometry"/>
                </mxCell>
                <mxCell id="MVznO9gAsRZyriu-F6Vp-79" value="-emergencial: boolean" style="text;align=left;verticalAlign=top;spacingLeft=4;spacingRight=4;overflow=hidden;rotatable=0;points=[[0,0.5],[1,0.5]];portConstraint=eastwest;rounded=0;shadow=0;html=0;" parent="MVznO9gAsRZyriu-F6Vp-77" vertex="1">
                    <mxGeometry y="70" width="160" height="26" as="geometry"/>
                </mxCell>
                <mxCell id="MVznO9gAsRZyriu-F6Vp-80" value="" style="line;html=1;strokeWidth=1;align=left;verticalAlign=middle;spacingTop=-1;spacingLeft=3;spacingRight=3;rotatable=0;labelPosition=right;points=[];portConstraint=eastwest;" parent="MVznO9gAsRZyriu-F6Vp-77" vertex="1">
                    <mxGeometry y="96" width="160" height="8" as="geometry"/>
                </mxCell>
                <mxCell id="MVznO9gAsRZyriu-F6Vp-81" value="" style="endArrow=block;endSize=10;endFill=0;shadow=0;strokeWidth=1;rounded=0;edgeStyle=elbowEdgeStyle;elbow=vertical;" parent="WIyWlLk6GJQsqaUBKTNV-1" edge="1">
                    <mxGeometry width="160" relative="1" as="geometry">
                        <mxPoint x="1445" y="500" as="sourcePoint"/>
                        <mxPoint x="1335" y="398" as="targetPoint"/>
                    </mxGeometry>
                </mxCell>
                <mxCell id="MVznO9gAsRZyriu-F6Vp-82" value="" style="endArrow=block;endSize=10;endFill=0;shadow=0;strokeWidth=1;rounded=0;edgeStyle=elbowEdgeStyle;elbow=vertical;" parent="WIyWlLk6GJQsqaUBKTNV-1" edge="1">
                    <mxGeometry width="160" relative="1" as="geometry">
                        <mxPoint x="1235" y="500" as="sourcePoint"/>
                        <mxPoint x="1335" y="398" as="targetPoint"/>
                    </mxGeometry>
                </mxCell>
                <mxCell id="MVznO9gAsRZyriu-F6Vp-83" value="1*" style="text;html=1;align=center;verticalAlign=middle;resizable=0;points=[];autosize=1;strokeColor=none;fillColor=none;" parent="WIyWlLk6GJQsqaUBKTNV-1" vertex="1">
                    <mxGeometry x="1340" y="270" width="30" height="30" as="geometry"/>
                </mxCell>
                <mxCell id="MVznO9gAsRZyriu-F6Vp-84" value="1" style="text;html=1;align=center;verticalAlign=middle;resizable=0;points=[];autosize=1;strokeColor=none;fillColor=none;" parent="WIyWlLk6GJQsqaUBKTNV-1" vertex="1">
                    <mxGeometry x="1340" y="220" width="30" height="30" as="geometry"/>
                </mxCell>
                <mxCell id="MVznO9gAsRZyriu-F6Vp-85" value="" style="endArrow=none;html=1;rounded=0;exitX=0.5;exitY=0;exitDx=0;exitDy=0;entryX=0.451;entryY=1.034;entryDx=0;entryDy=0;entryPerimeter=0;" parent="WIyWlLk6GJQsqaUBKTNV-1" source="MVznO9gAsRZyriu-F6Vp-70" target="MVznO9gAsRZyriu-F6Vp-69" edge="1">
                    <mxGeometry width="50" height="50" relative="1" as="geometry">
                        <mxPoint x="1325" y="240" as="sourcePoint"/>
                        <mxPoint x="1375" y="190" as="targetPoint"/>
                    </mxGeometry>
                </mxCell>
                <mxCell id="MVznO9gAsRZyriu-F6Vp-86" value="" style="endArrow=none;html=1;rounded=0;exitX=0.508;exitY=0.001;exitDx=0;exitDy=0;exitPerimeter=0;entryX=0.507;entryY=1.02;entryDx=0;entryDy=0;entryPerimeter=0;" parent="WIyWlLk6GJQsqaUBKTNV-1" source="MVznO9gAsRZyriu-F6Vp-64" edge="1">
                    <mxGeometry width="50" height="50" relative="1" as="geometry">
                        <mxPoint x="1325" y="-50" as="sourcePoint"/>
                        <mxPoint x="1357.73" y="-105.84000000000015" as="targetPoint"/>
                    </mxGeometry>
                </mxCell>
                <mxCell id="MVznO9gAsRZyriu-F6Vp-87" value="3" style="text;html=1;align=center;verticalAlign=middle;resizable=0;points=[];autosize=1;strokeColor=none;fillColor=none;" parent="WIyWlLk6GJQsqaUBKTNV-1" vertex="1">
                    <mxGeometry x="1360" y="-12" width="30" height="30" as="geometry"/>
                </mxCell>
                <mxCell id="MVznO9gAsRZyriu-F6Vp-88" value="1" style="text;html=1;align=center;verticalAlign=middle;resizable=0;points=[];autosize=1;strokeColor=none;fillColor=none;" parent="WIyWlLk6GJQsqaUBKTNV-1" vertex="1">
                    <mxGeometry x="1360" y="-102" width="30" height="30" as="geometry"/>
                </mxCell>
                <mxCell id="MVznO9gAsRZyriu-F6Vp-89" value="" style="endArrow=none;html=1;rounded=0;exitX=0.5;exitY=0;exitDx=0;exitDy=0;entryX=0.5;entryY=1;entryDx=0;entryDy=0;" parent="WIyWlLk6GJQsqaUBKTNV-1" target="MVznO9gAsRZyriu-F6Vp-55" edge="1">
                    <mxGeometry width="50" height="50" relative="1" as="geometry">
                        <mxPoint x="1355" y="-430" as="sourcePoint"/>
                        <mxPoint x="1375" y="-560" as="targetPoint"/>
                    </mxGeometry>
                </mxCell>
                <mxCell id="MVznO9gAsRZyriu-F6Vp-90" value="1" style="text;html=1;align=center;verticalAlign=middle;resizable=0;points=[];autosize=1;strokeColor=none;fillColor=none;" parent="WIyWlLk6GJQsqaUBKTNV-1" vertex="1">
                    <mxGeometry x="1365" y="-460" width="30" height="30" as="geometry"/>
                </mxCell>
                <mxCell id="MVznO9gAsRZyriu-F6Vp-91" value="1" style="text;html=1;align=center;verticalAlign=middle;resizable=0;points=[];autosize=1;strokeColor=none;fillColor=none;" parent="WIyWlLk6GJQsqaUBKTNV-1" vertex="1">
                    <mxGeometry x="1365" y="-550" width="30" height="30" as="geometry"/>
                </mxCell>
                <mxCell id="MVznO9gAsRZyriu-F6Vp-98" value="Main" style="swimlane;fontStyle=0;align=center;verticalAlign=top;childLayout=stackLayout;horizontal=1;startSize=26;horizontalStack=0;resizeParent=1;resizeLast=0;collapsible=1;marginBottom=0;rounded=0;shadow=0;strokeWidth=1;" parent="WIyWlLk6GJQsqaUBKTNV-1" vertex="1">
                    <mxGeometry x="800" y="-1210" width="360" height="100" as="geometry">
                        <mxRectangle x="550" y="140" width="160" height="26" as="alternateBounds"/>
                    </mxGeometry>
                </mxCell>
                <mxCell id="MVznO9gAsRZyriu-F6Vp-99" value="+aplicationWithFile: AplicationWithFile" style="text;align=left;verticalAlign=top;spacingLeft=4;spacingRight=4;overflow=hidden;rotatable=0;points=[[0,0.5],[1,0.5]];portConstraint=eastwest;" parent="MVznO9gAsRZyriu-F6Vp-98" vertex="1">
                    <mxGeometry y="26" width="360" height="26" as="geometry"/>
                </mxCell>
                <mxCell id="MVznO9gAsRZyriu-F6Vp-100" value="+AplicationWithOutFile: AplicationWithOutFile" style="text;align=left;verticalAlign=top;spacingLeft=4;spacingRight=4;overflow=hidden;rotatable=0;points=[[0,0.5],[1,0.5]];portConstraint=eastwest;rounded=0;shadow=0;html=0;" parent="MVznO9gAsRZyriu-F6Vp-98" vertex="1">
                    <mxGeometry y="52" width="360" height="26" as="geometry"/>
                </mxCell>
                <mxCell id="MVznO9gAsRZyriu-F6Vp-104" value="" style="line;html=1;strokeWidth=1;align=left;verticalAlign=middle;spacingTop=-1;spacingLeft=3;spacingRight=3;rotatable=0;labelPosition=right;points=[];portConstraint=eastwest;" parent="MVznO9gAsRZyriu-F6Vp-98" vertex="1">
                    <mxGeometry y="78" width="360" height="8" as="geometry"/>
                </mxCell>
                <mxCell id="MVznO9gAsRZyriu-F6Vp-121" style="edgeStyle=orthogonalEdgeStyle;rounded=0;orthogonalLoop=1;jettySize=auto;html=1;exitX=0.5;exitY=0;exitDx=0;exitDy=0;" parent="WIyWlLk6GJQsqaUBKTNV-1" source="MVznO9gAsRZyriu-F6Vp-108" edge="1">
                    <mxGeometry relative="1" as="geometry">
                        <mxPoint x="980" y="-1110" as="targetPoint"/>
                    </mxGeometry>
                </mxCell>
                <mxCell id="MVznO9gAsRZyriu-F6Vp-108" value="Aplication With File" style="swimlane;fontStyle=0;align=center;verticalAlign=top;childLayout=stackLayout;horizontal=1;startSize=26;horizontalStack=0;resizeParent=1;resizeLast=0;collapsible=1;marginBottom=0;rounded=0;shadow=0;strokeWidth=1;" parent="WIyWlLk6GJQsqaUBKTNV-1" vertex="1">
                    <mxGeometry x="420" y="-930" width="360" height="70" as="geometry">
                        <mxRectangle x="550" y="140" width="160" height="26" as="alternateBounds"/>
                    </mxGeometry>
                </mxCell>
                <mxCell id="MVznO9gAsRZyriu-F6Vp-111" value="" style="line;html=1;strokeWidth=1;align=left;verticalAlign=middle;spacingTop=-1;spacingLeft=3;spacingRight=3;rotatable=0;labelPosition=right;points=[];portConstraint=eastwest;" parent="MVznO9gAsRZyriu-F6Vp-108" vertex="1">
                    <mxGeometry y="26" width="360" height="8" as="geometry"/>
                </mxCell>
                <mxCell id="MVznO9gAsRZyriu-F6Vp-112" value="+openFile():void" style="text;align=left;verticalAlign=top;spacingLeft=4;spacingRight=4;overflow=hidden;rotatable=0;points=[[0,0.5],[1,0.5]];portConstraint=eastwest;rounded=0;shadow=0;html=0;" parent="MVznO9gAsRZyriu-F6Vp-108" vertex="1">
                    <mxGeometry y="34" width="360" height="26" as="geometry"/>
                </mxCell>
                <mxCell id="MVznO9gAsRZyriu-F6Vp-114" style="edgeStyle=orthogonalEdgeStyle;rounded=0;orthogonalLoop=1;jettySize=auto;html=1;entryX=0.468;entryY=0.035;entryDx=0;entryDy=0;entryPerimeter=0;" parent="WIyWlLk6GJQsqaUBKTNV-1" source="MVznO9gAsRZyriu-F6Vp-108" target="MVznO9gAsRZyriu-F6Vp-0" edge="1">
                    <mxGeometry relative="1" as="geometry"/>
                </mxCell>
                <mxCell id="MVznO9gAsRZyriu-F6Vp-118" style="edgeStyle=orthogonalEdgeStyle;rounded=0;orthogonalLoop=1;jettySize=auto;html=1;exitX=0.5;exitY=1;exitDx=0;exitDy=0;" parent="WIyWlLk6GJQsqaUBKTNV-1" source="MVznO9gAsRZyriu-F6Vp-115" edge="1">
                    <mxGeometry relative="1" as="geometry">
                        <mxPoint x="1360.0526315789475" y="-640" as="targetPoint"/>
                    </mxGeometry>
                </mxCell>
                <mxCell id="MVznO9gAsRZyriu-F6Vp-120" style="edgeStyle=orthogonalEdgeStyle;rounded=0;orthogonalLoop=1;jettySize=auto;html=1;exitX=0.5;exitY=0;exitDx=0;exitDy=0;entryX=0.5;entryY=1;entryDx=0;entryDy=0;" parent="WIyWlLk6GJQsqaUBKTNV-1" source="MVznO9gAsRZyriu-F6Vp-115" target="MVznO9gAsRZyriu-F6Vp-98" edge="1">
                    <mxGeometry relative="1" as="geometry"/>
                </mxCell>
                <mxCell id="MVznO9gAsRZyriu-F6Vp-115" value="Aplication WithOutÂ  File" style="swimlane;fontStyle=0;align=center;verticalAlign=top;childLayout=stackLayout;horizontal=1;startSize=26;horizontalStack=0;resizeParent=1;resizeLast=0;collapsible=1;marginBottom=0;rounded=0;shadow=0;strokeWidth=1;" parent="WIyWlLk6GJQsqaUBKTNV-1" vertex="1">
                    <mxGeometry x="1180" y="-930" width="360" height="70" as="geometry">
                        <mxRectangle x="550" y="140" width="160" height="26" as="alternateBounds"/>
                    </mxGeometry>
                </mxCell>
                <mxCell id="MVznO9gAsRZyriu-F6Vp-116" value="" style="line;html=1;strokeWidth=1;align=left;verticalAlign=middle;spacingTop=-1;spacingLeft=3;spacingRight=3;rotatable=0;labelPosition=right;points=[];portConstraint=eastwest;" parent="MVznO9gAsRZyriu-F6Vp-115" vertex="1">
                    <mxGeometry y="26" width="360" height="8" as="geometry"/>
                </mxCell>
                <mxCell id="MVznO9gAsRZyriu-F6Vp-119" value="AInda nao pensei na logica" style="text;align=left;verticalAlign=top;spacingLeft=4;spacingRight=4;overflow=hidden;rotatable=0;points=[[0,0.5],[1,0.5]];portConstraint=eastwest;rounded=0;shadow=0;html=0;" parent="MVznO9gAsRZyriu-F6Vp-115" vertex="1">
                    <mxGeometry y="34" width="360" height="26" as="geometry"/>
                </mxCell>
                <mxCell id="1" value="" style="endArrow=none;html=1;exitX=0.5;exitY=0;exitDx=0;exitDy=0;" parent="WIyWlLk6GJQsqaUBKTNV-1" source="MVznO9gAsRZyriu-F6Vp-21" edge="1">
                    <mxGeometry width="50" height="50" relative="1" as="geometry">
                        <mxPoint x="590" y="560" as="sourcePoint"/>
                        <mxPoint x="590" y="430" as="targetPoint"/>
                    </mxGeometry>
                </mxCell>
                <mxCell id="2" value="1&lt;br&gt;" style="text;html=1;align=center;verticalAlign=middle;resizable=0;points=[];autosize=1;strokeColor=none;fillColor=none;" parent="WIyWlLk6GJQsqaUBKTNV-1" vertex="1">
                    <mxGeometry x="605" y="435" width="30" height="30" as="geometry"/>
                </mxCell>
                <mxCell id="3" value="Gerenciador de Pista" style="swimlane;fontStyle=2;align=center;verticalAlign=top;childLayout=stackLayout;horizontal=1;startSize=26;horizontalStack=0;resizeParent=1;resizeLast=0;collapsible=1;marginBottom=0;rounded=0;shadow=0;strokeWidth=1;" parent="WIyWlLk6GJQsqaUBKTNV-1" vertex="1">
                    <mxGeometry x="1180" y="-430" width="390" height="320" as="geometry">
                        <mxRectangle x="230" y="140" width="160" height="26" as="alternateBounds"/>
                    </mxGeometry>
                </mxCell>
                <mxCell id="4" value="-Pista1: Pista" style="text;align=left;verticalAlign=top;spacingLeft=4;spacingRight=4;overflow=hidden;rotatable=0;points=[[0,0.5],[1,0.5]];portConstraint=eastwest;" parent="3" vertex="1">
                    <mxGeometry y="26" width="390" height="26" as="geometry"/>
                </mxCell>
                <mxCell id="5" value="-Pista2: Pista" style="text;align=left;verticalAlign=top;spacingLeft=4;spacingRight=4;overflow=hidden;rotatable=0;points=[[0,0.5],[1,0.5]];portConstraint=eastwest;rounded=0;shadow=0;html=0;" parent="3" vertex="1">
                    <mxGeometry y="52" width="390" height="26" as="geometry"/>
                </mxCell>
                <mxCell id="6" value="-Pista2: Pista" style="text;align=left;verticalAlign=top;spacingLeft=4;spacingRight=4;overflow=hidden;rotatable=0;points=[[0,0.5],[1,0.5]];portConstraint=eastwest;rounded=0;shadow=0;html=0;" parent="3" vertex="1">
                    <mxGeometry y="78" width="390" height="26" as="geometry"/>
                </mxCell>
                <mxCell id="7" value="" style="line;html=1;strokeWidth=1;align=left;verticalAlign=middle;spacingTop=-1;spacingLeft=3;spacingRight=3;rotatable=0;labelPosition=right;points=[];portConstraint=eastwest;" parent="3" vertex="1">
                    <mxGeometry y="104" width="390" height="8" as="geometry"/>
                </mxCell>
                <mxCell id="8" value="+MenorFilaDeAterrissagem(): int&#10;+MenorFilaDeDecolagem():int &#10;+QuantidadeDeAviao(Pista p): int&#10;+AdicionarAviaoAterrissagem(): void&#10;+AdicionarAviaoPouso():void&#10;+AdicionarAviaoEmergencial():void&#10;+ConferirAviaoEmergencial():Aviao&#10;+ConferirCondiÃ§oesClimaticas():boolean&#10;" style="text;align=left;verticalAlign=top;spacingLeft=4;spacingRight=4;overflow=hidden;rotatable=0;points=[[0,0.5],[1,0.5]];portConstraint=eastwest;rounded=0;shadow=0;html=0;" parent="3" vertex="1">
                    <mxGeometry y="112" width="390" height="208" as="geometry"/>
                </mxCell>
            </root>
        </mxGraphModel>
    </diagram>
</mxfile>